<svg xmlns="http://www.w3.org/2000/svg" viewBox="0 0 64 64">
  <defs>
    <linearGradient id="g" x1="0" y1="0" x2="1" y2="1">
      <stop offset="0" stop-color="#00f2fe"/>
      <stop offset="1" stop-color="#7900cd"/>
    </linearGradient>
  </defs>
  <rect width="64" height="64" rx="14" fill="#0a0e18"/>
  <rect x="2" y="2" width="60" height="60" rx="12" fill="none" stroke="url(#g)" stroke-width="2.5"/>
  <path fill="#e0fdff" d="M32 10c1.6 8.9 4.6 13.5 9.8 16.4 2.9 1.6 6.7 2.8 12.2 3.6-5.5.8-9.3 2-12.2 3.6C36.6 36.5 33.6 41.1 32 50c-1.6-8.9-4.6-13.5-9.8-16.4-2.9-1.6-6.7-2.8-12.2-3.6 5.5-.8 9.3-2 12.2-3.6C27.4 23.5 30.4 18.9 32 10z"/>
  <circle cx="48" cy="46" r="4.5" fill="#00dce6"/>
</svg>
